{
  "accessors": [
    {
      "bufferView": 3,
      "componentType": 5126,
      "count": 4780,
      "max": [
        22.566299438476563,
        132.59091186523438,
        22.815673828125
      ],
      "min": [
        -22.566299438476563,
        0.17174410820007324,
        -22.815673828125
      ],
      "type": "VEC3"
    },
    {
      "bufferView": 3,
      "byteOffset": 57360,
      "componentType": 5126,
      "count": 4780,
      "max": [
        0.9999974370002747,
        1.0,
        1.0
      ],
      "min": [
        -0.9999998211860657,
        -1.0,
        -0.999885082244873
      ],
      "type": "VEC3"
    },
    {
      "bufferView": 4,
      "componentType": 5126,
      "count": 4780,
      "max": [
        0.9999387264251709,
        0.9995904564857483,
        0.9997851848602295,
        1.0
      ],
      "min": [
        -0.9999997615814209,
        -0.9997748732566833,
        -0.9999749064445496,
        -1.0
      ],
      "type": "VEC4"
    },
    {
      "bufferView": 2,
      "componentType": 5126,
      "count": 4780,
      "max": [
        1.4651892185211182,
        1.1526377201080322
      ],
      "min": [
        0.007236838340759277,
        -0.5673599243164063
      ],
      "type": "VEC2"
    },
    {
      "bufferView": 1,
      "componentType": 5125,
      "count": 24588,
      "type": "SCALAR"
    },
    {
      "bufferView": 5,
      "componentType": 5126,
      "count": 3,
      "max": [
        1.0,
        0.2584409713745117,
        0.9660020470619202,
        0.0,
        0.9996389746665955,
        1.0,
        0.0,
        0.0,
        0.0,
        0.9656533598899841,
        1.0,
        0.0,
        0.0,
        0.0,
        0.0,
        1.0
      ],
      "min": [
        -0.006946380250155926,
        0.0,
        0.0,
        0.0,
        0.0,
        0.026868311688303947,
        -8.760353553682876e-17,
        0.0,
        -0.025954844430088997,
        0.0,
        -0.25853431224823,
        0.0,
        0.0,
        0.0,
        0.0,
        1.0
      ],
      "type": "MAT4"
    },
    {
      "bufferView": 0,
      "componentType": 5123,
      "count": 4780,
      "type": "VEC4"
    },
    {
      "bufferView": 4,
      "byteOffset": 76480,
      "componentType": 5126,
      "count": 4780,
      "max": [
        1.0,
        0.0,
        0.0,
        0.0
      ],
      "min": [
        1.0,
        0.0,
        0.0,
        0.0
      ],
      "type": "VEC4"
    }
  ],
  "asset": {
    "extras": {
      "author": "jjarhead24 (https://sketchfab.com/jjarhead24)",
      "license": "SKETCHFAB Standard (https://sketchfab.com/licenses)",
      "source": "https://sketchfab.com/3d-models/gnome-gnomus-eggington-4dc7dd5f879640589f206cd79ca78884",
      "title": "Gnome (Gnomus Eggington)"
    },
    "generator": "Sketchfab-16.0.0",
    "version": "2.0"
  },
  "bufferViews": [
    {
      "buffer": 0,
      "byteLength": 38240,
      "byteStride": 8,
      "name": "shortBufferViews",
      "target": 34962
    },
    {
      "buffer": 0,
      "byteLength": 98352,
      "byteOffset": 38240,
      "name": "floatBufferViews",
      "target": 34963
    },
    {
      "buffer": 0,
      "byteLength": 38240,
      "byteOffset": 136592,
      "byteStride": 8,
      "name": "floatBufferViews",
      "target": 34962
    },
    {
      "buffer": 0,
      "byteLength": 114720,
      "byteOffset": 174832,
      "byteStride": 12,
      "name": "floatBufferViews",
      "target": 34962
    },
    {
      "buffer": 0,
      "byteLength": 152960,
      "byteOffset": 289552,
      "byteStride": 16,
      "name": "floatBufferViews",
      "target": 34962
    },
    {
      "buffer": 0,
      "byteLength": 192,
      "byteOffset": 442512,
      "name": "floatBufferViews"
    }
  ],
  "buffers": [
    {
      "byteLength": 442704,
      "uri": "scene.bin"
    }
  ],
  "extensionsUsed": [
    "KHR_materials_specular"
  ],
  "images": [
    {
      "uri": "textures/standardSurface1_baseColor.png"
    },
    {
      "uri": "textures/standardSurface1_metallicRoughness.png"
    },
    {
      "uri": "textures/standardSurface1_normal.png"
    },
    {
      "uri": "textures/standardSurface1_specularf0.png"
    }
  ],
  "materials": [
    {
      "doubleSided": true,
      "extensions": {
        "KHR_materials_specular": {
          "specularColorFactor": [
            1.0,
            1.0,
            1.0
          ],
          "specularFactor": 1.0,
          "specularTexture": {
            "index": 3
          }
        }
      },
      "name": "standardSurface1",
      "normalTexture": {
        "index": 2
      },
      "pbrMetallicRoughness": {
        "baseColorTexture": {
          "index": 0
        },
        "metallicRoughnessTexture": {
          "index": 1
        },
        "roughnessFactor": 0.6
      }
    }
  ],
  "meshes": [
    {
      "name": "polySurface19_standardSurface1_0",
      "primitives": [
        {
          "attributes": {
            "JOINTS_0": 6,
            "NORMAL": 1,
            "POSITION": 0,
            "TANGENT": 2,
            "TEXCOORD_0": 3,
            "WEIGHTS_0": 7
          },
          "indices": 4,
          "material": 0,
          "mode": 4
        }
      ]
    }
  ],
  "nodes": [
    {
      "children": [
        1
      ],
      "matrix": [
        0.9081535935401917,
        -0.41863715648651123,
        -9.29561220189859e-17,
        0.0,
        0.0,
        2.220446049250313e-16,
        -1.0,
        0.0,
        0.41863715648651123,
        0.9081535935401917,
        2.0165060588887932e-16,
        0.0,
        0.0,
        0.0,
        0.0,
        1.0
      ],
      "name": "Sketchfab_model"
    },
    {
      "children": [
        2
      ],
      "matrix": [
        0.009999999776482582,
        0.0,
        0.0,
        0.0,
        0.0,
        0.0,
        0.009999999776482582,
        0.0,
        0.0,
        -0.009999999776482582,
        0.0,
        0.0,
        0.0,
        0.0,
        0.0,
        1.0
      ],
      "name": "20e6525ccd8e40f3a6a1f7c641564265.fbx"
    },
    {
      "children": [
        3
      ],
      "name": "RootNode"
    },
    {
      "children": [
        4,
        6,
        5
      ],
      "name": "Object_3"
    },
    {
      "children": [
        7
      ],
      "name": "_rootJoint"
    },
    {
      "matrix": [
        1.0,
        4.352302421346023e-19,
        0.0,
        0.0,
        -4.352302421346023e-19,
        1.0,
        2.0560810506136988e-18,
        0.0,
        8.948686535069675e-37,
        -2.0560810506136984e-18,
        0.9999999999999999,
        0.0,
        -0.5383472542239218,
        1.3287336526476172,
        0.0,
        1.0
      ],
      "name": "Object_5"
    },
    {
      "mesh": 0,
      "name": "Object_6",
      "skin": 0
    },
    {
      "children": [
        8
      ],
      "name": "Root_00",
      "rotation": [
        0.4534645676612854,
        0.6463901400566101,
        0.5300338268280029,
        0.3092151880264282
      ],
      "translation": [
        0.0,
        3.9709999561309814,
        0.0
      ]
    },
    {
      "name": "Top_01",
      "rotation": [
        0.5533352494239807,
        0.5684076547622681,
        0.4247186481952667,
        -0.43628764152526855
      ],
      "translation": [
        132.6387939453125,
        1.2823075934420558e-14,
        -8.215650382226158e-15
      ]
    }
  ],
  "samplers": [
    {
      "magFilter": 9729,
      "minFilter": 9987,
      "wrapS": 10497,
      "wrapT": 10497
    }
  ],
  "scene": 0,
  "scenes": [
    {
      "name": "Sketchfab_Scene",
      "nodes": [
        0
      ]
    }
  ],
  "skins": [
    {
      "inverseBindMatrices": 5,
      "joints": [
        4,
        7,
        8
      ],
      "skeleton": 4
    }
  ],
  "textures": [
    {
      "sampler": 0,
      "source": 0
    },
    {
      "sampler": 0,
      "source": 1
    },
    {
      "sampler": 0,
      "source": 2
    },
    {
      "sampler": 0,
      "source": 3
    }
  ]
}
