{
  "accessors": [
    {
      "bufferView": 2,
      "componentType": 5126,
      "count": 8159,
      "max": [
        115.0989990234375,
        25.815200805664063,
        178.65049743652344
      ],
      "min": [
        -115.0989990234375,
        -36.56829833984375,
        0.028699999675154686
      ],
      "type": "VEC3"
    },
    {
      "bufferView": 2,
      "byteOffset": 97908,
      "componentType": 5126,
      "count": 8159,
      "max": [
        0.9999856352806091,
        0.9999732375144958,
        0.999993622303009
      ],
      "min": [
        -0.9999856352806091,
        -0.9999962449073792,
        -0.9999021291732788
      ],
      "type": "VEC3"
    },
    {
      "bufferView": 1,
      "componentType": 5126,
      "count": 8159,
      "max": [
        0.9771000146865845,
        0.9980000257492065
      ],
      "min": [
        0.0020000000949949026,
        0.0020000000949949026
      ],
      "type": "VEC2"
    },
    {
      "bufferView": 0,
      "componentType": 5125,
      "count": 34392,
      "type": "SCALAR"
    },
    {
      "bufferView": 2,
      "byteOffset": 195816,
      "componentType": 5126,
      "count": 818,
      "max": [
        11.503599166870117,
        -13.418298721313477,
        180.34779357910156
      ],
      "min": [
        -11.503602027893066,
        -23.84510040283203,
        170.4322052001953
      ],
      "type": "VEC3"
    },
    {
      "bufferView": 2,
      "byteOffset": 205632,
      "componentType": 5126,
      "count": 818,
      "max": [
        0.9901926517486572,
        0.9998915195465088,
        0.9925779104232788
      ],
      "min": [
        -0.9901926517486572,
        -0.9998916387557983,
        -0.992578387260437
      ],
      "type": "VEC3"
    },
    {
      "bufferView": 1,
      "byteOffset": 65272,
      "componentType": 5126,
      "count": 818,
      "max": [
        2.742000102996826,
        0.8999999761581421
      ],
      "min": [
        -0.5,
        0.10000000149011612
      ],
      "type": "VEC2"
    },
    {
      "bufferView": 0,
      "byteOffset": 137568,
      "componentType": 5125,
      "count": 4560,
      "type": "SCALAR"
    }
  ],
  "asset": {
    "extras": {
      "author": "supernovalabs (https://sketchfab.com/supernovalabs)",
      "license": "CC-BY-SA-4.0 (http://creativecommons.org/licenses/by-sa/4.0/)",
      "source": "https://sketchfab.com/3d-models/kermit-the-frog-d8f1fd3e21c44231a9a04c1d760de6b6",
      "title": "Kermit The Frog"
    },
    "generator": "Sketchfab-12.66.0",
    "version": "2.0"
  },
  "bufferViews": [
    {
      "buffer": 0,
      "byteLength": 155808,
      "name": "floatBufferViews",
      "target": 34963
    },
    {
      "buffer": 0,
      "byteLength": 71816,
      "byteOffset": 155808,
      "byteStride": 8,
      "name": "floatBufferViews",
      "target": 34962
    },
    {
      "buffer": 0,
      "byteLength": 215448,
      "byteOffset": 227624,
      "byteStride": 12,
      "name": "floatBufferViews",
      "target": 34962
    }
  ],
  "buffers": [
    {
      "byteLength": 443072,
      "uri": "scene.bin"
    }
  ],
  "images": [
    {
      "uri": "textures/body_baseColor.png"
    },
    {
      "uri": "textures/material_baseColor.png"
    }
  ],
  "materials": [
    {
      "doubleSided": true,
      "name": "body",
      "pbrMetallicRoughness": {
        "baseColorTexture": {
          "index": 0
        },
        "metallicFactor": 0.0
      }
    },
    {
      "doubleSided": true,
      "name": "material",
      "pbrMetallicRoughness": {
        "baseColorTexture": {
          "index": 1
        },
        "metallicFactor": 0.0
      }
    }
  ],
  "meshes": [
    {
      "name": "Object_0",
      "primitives": [
        {
          "attributes": {
            "NORMAL": 1,
            "POSITION": 0,
            "TEXCOORD_0": 2
          },
          "indices": 3,
          "material": 0,
          "mode": 4
        }
      ]
    },
    {
      "name": "Object_1",
      "primitives": [
        {
          "attributes": {
            "NORMAL": 5,
            "POSITION": 4,
            "TEXCOORD_0": 6
          },
          "indices": 7,
          "material": 1,
          "mode": 4
        }
      ]
    }
  ],
  "nodes": [
    {
      "children": [
        1
      ],
      "matrix": [
        1.0,
        0.0,
        0.0,
        0.0,
        0.0,
        2.220446049250313e-16,
        -1.0,
        0.0,
        0.0,
        1.0,
        2.220446049250313e-16,
        0.0,
        0.0,
        0.0,
        0.0,
        1.0
      ],
      "name": "Sketchfab_model"
    },
    {
      "children": [
        2,
        3
      ],
      "name": "kermit.obj.cleaner.materialmerger.gles"
    },
    {
      "mesh": 0,
      "name": "Object_2"
    },
    {
      "mesh": 1,
      "name": "Object_3"
    }
  ],
  "samplers": [
    {
      "magFilter": 9729,
      "minFilter": 9987,
      "wrapS": 10497,
      "wrapT": 10497
    }
  ],
  "scene": 0,
  "scenes": [
    {
      "name": "Sketchfab_Scene",
      "nodes": [
        0
      ]
    }
  ],
  "textures": [
    {
      "sampler": 0,
      "source": 0
    },
    {
      "sampler": 0,
      "source": 1
    }
  ]
}
